<svg width="105" height="21" viewBox="0 0 105 21" fill="none" xmlns="http://www.w3.org/2000/svg">
<path d="M97.6223 0C97.6223 7.19598 91.9978 13.0507 85.0849 13.0507C78.825 13.0507 73.6359 8.24322 72.7063 1.99038C72.7652 1.33508 72.8005 0.673666 72.8005 0H72.5416H65.1639H64.905C64.905 7.04899 59.3982 12.7813 52.6265 12.7813C45.8548 12.7813 40.348 7.04899 40.348 0H32.4584C32.4584 7.04899 26.9457 12.7813 20.174 12.7813C13.4023 12.7813 7.88956 7.04899 7.88956 0H0C0 11.5809 9.04858 21 20.174 21C26.828 21 32.7231 17.6133 36.4002 12.4261C40.0773 17.6133 45.9724 21 52.6265 21C59.3806 21 65.3522 17.5153 69.0175 12.1995C72.6416 17.3622 78.4838 20.7305 85.0849 20.7305C96.0632 20.7305 105 11.4339 105 0H97.6223Z" fill="url(#paint0_linear)"/>
<defs>
<linearGradient id="paint0_linear" x1="0" y1="10.5002" x2="105" y2="10.5002" gradientUnits="userSpaceOnUse">
<stop stop-color="#00A79B"/>
<stop offset="0.510417" stop-color="#A8B1D9"/>
</linearGradient>
</defs>
</svg>
